<?xml version="1.0" encoding="UTF-8" standalone="no"?>
<!-- Created with Inkscape (http://www.inkscape.org/) -->

<svg
   xmlns:dc="http://purl.org/dc/elements/1.1/"
   xmlns:cc="http://creativecommons.org/ns#"
   xmlns:rdf="http://www.w3.org/1999/02/22-rdf-syntax-ns#"
   xmlns:svg="http://www.w3.org/2000/svg"
   xmlns="http://www.w3.org/2000/svg"
   xmlns:sodipodi="http://sodipodi.sourceforge.net/DTD/sodipodi-0.dtd"
   xmlns:inkscape="http://www.inkscape.org/namespaces/inkscape"
   width="744.09448819"
   height="1052.3622047"
   id="svg6337"
   version="1.1"
   inkscape:version="0.48.4 r9939"
   sodipodi:docname="MFD vector logo.svg">
  <defs
     id="defs6339" />
  <sodipodi:namedview
     id="base"
     pagecolor="#ffffff"
     bordercolor="#666666"
     borderopacity="1.0"
     inkscape:pageopacity="0.0"
     inkscape:pageshadow="2"
     inkscape:zoom="0.7"
     inkscape:cx="485.02695"
     inkscape:cy="535.44729"
     inkscape:document-units="px"
     inkscape:current-layer="layer1"
     showgrid="false"
     inkscape:window-width="1304"
     inkscape:window-height="745"
     inkscape:window-x="54"
     inkscape:window-y="-8"
     inkscape:window-maximized="1" />
  <metadata
     id="metadata6342">
    <rdf:RDF>
      <cc:Work
         rdf:about="">
        <dc:format>image/svg+xml</dc:format>
        <dc:type
           rdf:resource="http://purl.org/dc/dcmitype/StillImage" />
        <dc:title />
      </cc:Work>
    </rdf:RDF>
  </metadata>
  <g
     inkscape:label="Layer 1"
     inkscape:groupmode="layer"
     id="layer1">
    <path
       style="fill:#550000"
       d="m 319.74123,889.8387 -44.28571,-23.31783 -0.36404,-142.23155 c -0.209,-81.65786 -0.90442,-142.23157 -1.63288,-142.23157 -0.69785,0 -1.56015,0.80357 -1.91621,1.78571 -0.35606,0.98214 -11.46911,57.39286 -24.69567,125.35714 -13.22656,67.96429 -24.5278,124.13449 -25.11386,124.82267 -0.58604,0.68819 -15.7552,-6.99222 -33.7092,-17.0676 L 155.38001,798.63682 130.44962,643.20443 c -13.71172,-85.48783 -25.53279,-155.4324 -26.26906,-155.4324 -0.82995,0 -0.97296,52.93209 -0.37632,139.28572 0.5293,76.60714 0.47451,139.27687 -0.12175,139.26607 -0.59626,-0.0108 -20.369825,-10.58157 -43.941254,-23.49059 L 16.884093,719.3623 16.457571,517.49573 c -0.234587,-111.0266 -0.02921,-206.36656 0.456401,-211.86656 l 0.882923,-10 175.852595,-86.42857 c 96.71893,-47.53571 176.31819,-86.29131 176.88726,-86.12354 2.02234,0.59621 261.86087,143.2085 262.99964,144.34727 0.63742,0.63742 -18.1491,10.29746 -41.74783,21.46676 l -42.90678,20.30781 -4.57027,-2.34305 c -2.51365,-1.28869 -35.70478,-19.39545 -73.75805,-40.23726 -38.05327,-20.8418 -69.8747,-37.88938 -70.71428,-37.88351 -2.77522,0.0194 -53.66546,28.29655 -53.2426,29.58425 0.22785,0.69387 24.81432,14.8374 54.63661,31.43006 29.82229,16.59266 55.09147,30.72841 56.15377,31.41278 1.32606,0.8543 -11.13074,7.04849 -39.74254,19.76212 l -41.67397,18.51778 -57.87073,-32.10895 -57.87074,-32.10897 -62.74388,30.83192 c -34.50912,16.95756 -62.74156,31.51298 -62.73875,32.34536 0.0127,3.77323 52.64495,309.63973 53.41377,310.40853 0.47676,0.47676 1.07141,0.59897 1.32147,0.2716 0.25006,-0.32739 12.17686,-56.18276 26.50401,-124.12306 14.32715,-67.9403 26.25878,-123.73724 26.51473,-123.99318 0.25596,-0.25596 27.32925,14.38694 60.16286,32.53977 l 59.69749,33.00514 7.97598,-3.52976 c 4.3868,-1.94137 46.86886,-22.2764 94.40457,-45.18895 47.53572,-22.91255 89.96429,-42.59236 94.28572,-43.73292 40.59206,-10.71347 81.06074,-2.13054 105.07354,22.28486 13.83686,14.06883 21.78717,27.4766 28.57746,48.19424 13.86864,42.31429 13.77821,114.8698 -0.22306,178.94862 -11.70531,53.57104 -32.73164,96.62478 -62.68608,128.35671 -15.19426,16.0959 -30.89523,27.61449 -50.02758,36.70137 -8.64285,4.10492 -60.27661,29.39613 -114.74168,56.2027 -54.46507,26.80657 -99.46507,48.66502 -100,48.57432 -0.53493,-0.0907 -20.90117,-10.65792 -45.25832,-23.48272 z m 199.90955,-152.88161 30.09045,-13.31027 10.18563,-10.72086 c 21.27653,-22.39454 33.35267,-58.47526 35.94773,-107.40347 1.9336,-36.45656 -1.17258,-63.75112 -9.0166,-79.23053 -8.01537,-15.81759 -16.81926,-21.40139 -33.63921,-21.33541 -12.04709,0.0473 -15.08596,1.15257 -51.14909,18.60438 l -21.95726,10.62563 0.89375,70.72131 c 0.49155,38.89672 1.28817,87.93676 1.77024,108.97786 0.86687,37.83652 0.90893,38.24627 3.8302,37.31909 1.62453,-0.5156 16.4944,-6.92709 33.04416,-14.24773 z"
       id="path3269"
       inkscape:connector-curvature="0" />
  </g>
</svg>
